<svg xmlns="http://www.w3.org/2000/svg" viewBox="0 0 24 24" role="img" aria-label="Pinterest logo placeholder">
  <rect width="24" height="24" rx="4" fill="#E60023"/>
  <path fill="#fff" d="M12.2 6.5c-3 0-4.7 2.1-4.7 4.4 0 1.1.6 2.5 1.7 3 .2.1.3 0 .4-.2l.4-1.4c.1-.2 0-.3-.1-.5-.4-.6-.3-2.1.8-3 1.1-.9 3.3-.7 4 .8.6 1.5-.3 4.1-2.2 4.1-.7 0-1.3-.5-1.1-1.2.2-.7.6-1.5.6-2 0-.4-.2-.8-.7-.8-.6 0-1.1.6-1.1 1.4 0 .5.2.8.2.8s-.7 2.8-.8 3.3c-.2.8 0 2.1 0 2.1.1.1.2.1.3 0 .3-.4 1.9-2.4 1.9-3 .1.6 1 .9 1.7.9 2.3 0 3.9-2.1 3.9-4.8 0-2.5-2.1-4.6-4.6-4.6z"/>
</svg>
