<svg xmlns="http://www.w3.org/2000/svg" viewBox="0 0 1200 800" role="img" aria-label="Dashboard: panoramica e strumenti">
  <defs>
    <linearGradient id="bg" x1="0" y1="0" x2="1" y2="1">
      <stop offset="0%" stop-color="#eaf4e6"/>
      <stop offset="100%" stop-color="#A3B59D"/>
    </linearGradient>
  </defs>
  <rect width="1200" height="800" fill="url(#bg)"/>
  <g stroke="#6f8a73" stroke-width="2" opacity="0.25" fill="none">
    <path d="M80,680 C260,600 420,620 600,520 C820,400 980,420 1120,360"/>
    <path d="M80,620 C240,560 420,560 620,480 C820,400 980,360 1120,320"/>
  </g>
  <g opacity="0.2" fill="#6f8a73">
    <circle cx="1040" cy="180" r="70"/>
    <rect x="980" y="260" width="120" height="12" rx="6"/>
    <rect x="980" y="286" width="80" height="12" rx="6"/>
  </g>
  <g fill="#ffffff" opacity="0.9">
    <rect x="120" y="520" width="520" height="200" rx="16"/>
    <rect x="660" y="520" width="420" height="200" rx="16"/>
  </g>
  <g font-family="Segoe UI, Arial, sans-serif" fill="#ffffff">
    <text x="120" y="360" font-size="80" font-weight="700">Dashboard</text>
    <text x="120" y="418" font-size="28" opacity="0.9">Panoramica e strumenti</text>
  </g>
</svg>

