<svg xmlns="http://www.w3.org/2000/svg" viewBox="0 0 1600 900" role="img" aria-labelledby="title desc">
  <title id="title">Atelier con abito da sposa e sarta</title>
  <desc id="desc">Una scena elegante di atelier con abito da sposa su manichino, metro da sarta, tulle e piante decorative.</desc>
  <defs>
    <linearGradient id="bg" x1="0" y1="0" x2="1" y2="1">
      <stop offset="0%" stop-color="#f1eee9" />
      <stop offset="100%" stop-color="#e2d8cf" />
    </linearGradient>
    <linearGradient id="dress" x1="0" y1="0" x2="0" y2="1">
      <stop offset="0%" stop-color="#ffffff" />
      <stop offset="100%" stop-color="#f4f0eb" />
    </linearGradient>
    <filter id="shadow" x="-20%" y="-20%" width="140%" height="140%">
      <feDropShadow dx="0" dy="18" stdDeviation="18" flood-color="#d0c0b0" flood-opacity="0.4" />
    </filter>
  </defs>
  <rect width="1600" height="900" fill="url(#bg)" />
  <g transform="translate(340 120)">
    <rect x="0" y="0" width="920" height="660" rx="38" fill="#fbf8f4" filter="url(#shadow)" />
    <rect x="80" y="80" width="760" height="500" rx="28" fill="#fff" />
    <path d="M80 280h760" stroke="#e0d5cb" stroke-width="12" stroke-linecap="round" />
    <path d="M80 420h760" stroke="#e0d5cb" stroke-width="12" stroke-linecap="round" />
    <rect x="130" y="130" width="220" height="120" rx="16" fill="#ede3d8" />
    <rect x="380" y="130" width="220" height="120" rx="16" fill="#ede3d8" />
    <rect x="630" y="130" width="160" height="120" rx="16" fill="#ede3d8" />
  </g>
  <g transform="translate(520 220)">
    <path d="M170 40c60 60 100 140 100 240s-40 180-100 240h-140c-60-60-100-140-100-240S20 100 80 40h90z" fill="url(#dress)" stroke="#e6d9cf" stroke-width="12" />
    <path d="M60 130c60 0 120-40 120-90" stroke="#d3c6bb" stroke-width="18" stroke-linecap="round" fill="none" />
    <path d="M50 420h200" stroke="#c5b5a7" stroke-width="18" stroke-linecap="round" />
    <circle cx="150" cy="12" r="42" fill="#c49a6c" />
  </g>
  <g transform="translate(860 180)">
    <rect x="0" y="0" width="260" height="560" rx="40" fill="#efe4da" filter="url(#shadow)" />
    <rect x="40" y="60" width="180" height="240" rx="24" fill="#fff" />
    <path d="M80 130c60 30 140 30 180 0" fill="none" stroke="#d3c4b8" stroke-width="12" stroke-linecap="round" />
    <path d="M80 200c60 30 140 30 180 0" fill="none" stroke="#d3c4b8" stroke-width="12" stroke-linecap="round" />
    <rect x="40" y="340" width="180" height="140" rx="30" fill="#fff" />
    <path d="M80 400c50 36 130 36 180 0" fill="none" stroke="#d3c4b8" stroke-width="12" stroke-linecap="round" />
  </g>
  <g transform="translate(380 540)">
    <path d="M0 80c60-80 150-120 220-80 70 42 70 130-10 180-70 44-170 26-210-100z" fill="#ece1d6" filter="url(#shadow)" />
  </g>
  <g transform="translate(1080 540)">
    <path d="M0 80c42-70 132-110 200-70 60 36 60 112-14 150-66 34-154 18-186-80z" fill="#e4d6c6" filter="url(#shadow)" />
    <path d="M40 90c30-48 92-70 140-42 44 28 40 84-10 110-40 22-110 12-130-68z" fill="#c8b6a3" />
  </g>
  <g transform="translate(700 620)">
    <path d="M0 0c120 60 220 60 320 0" fill="none" stroke="#e0c9b0" stroke-width="20" stroke-linecap="round" />
    <path d="M20 40c100 40 200 40 280 0" fill="none" stroke="#d4bfa6" stroke-width="14" stroke-linecap="round" />
  </g>
</svg>
