<svg xmlns="http://www.w3.org/2000/svg" viewBox="0 0 1600 900" role="img" aria-labelledby="title desc">
  <title id="title">Postazione beauty con make-up da sposa</title>
  <desc id="desc">Specchio illuminato, palette trucco, pennelli e profumo su un vanity color cipria per il trucco sposa.</desc>
  <defs>
    <linearGradient id="bg" x1="0" y1="0" x2="1" y2="1">
      <stop offset="0%" stop-color="#f7f0ed" />
      <stop offset="100%" stop-color="#e8d6ce" />
    </linearGradient>
    <filter id="shadow" x="-20%" y="-20%" width="140%" height="140%">
      <feDropShadow dx="0" dy="18" stdDeviation="18" flood-color="#d6c0b4" flood-opacity="0.45" />
    </filter>
    <linearGradient id="mirror" x1="0" y1="0" x2="0" y2="1">
      <stop offset="0%" stop-color="#ffffff" />
      <stop offset="100%" stop-color="#f1e7df" />
    </linearGradient>
    <linearGradient id="light" x1="0" y1="0" x2="1" y2="1">
      <stop offset="0%" stop-color="#ffe5c6" />
      <stop offset="100%" stop-color="#f1ba8a" />
    </linearGradient>
  </defs>
  <rect width="1600" height="900" fill="url(#bg)" />
  <g transform="translate(360 120)">
    <rect x="0" y="0" width="880" height="660" rx="40" fill="#fffaf6" filter="url(#shadow)" />
    <rect x="120" y="120" width="640" height="420" rx="32" fill="url(#mirror)" />
    <g fill="#ffe9d4" stroke="#f7caa3" stroke-width="12" transform="translate(160 170)">
      <circle cx="40" cy="40" r="32" />
      <circle cx="520" cy="40" r="32" />
      <circle cx="40" cy="320" r="32" />
      <circle cx="520" cy="320" r="32" />
    </g>
    <rect x="100" y="580" width="680" height="80" rx="40" fill="#f2ded2" />
  </g>
  <g transform="translate(460 540)">
    <rect x="0" y="0" width="220" height="120" rx="30" fill="#f3e0d5" filter="url(#shadow)" />
    <rect x="20" y="20" width="180" height="80" rx="20" fill="#2f2a2a" />
    <path d="M40 60h140" stroke="#f7d8c2" stroke-width="10" stroke-linecap="round" />
  </g>
  <g transform="translate(720 520)">
    <rect x="0" y="0" width="260" height="160" rx="34" fill="#f6e8de" filter="url(#shadow)" />
    <rect x="30" y="30" width="200" height="60" rx="20" fill="#eac7bb" />
    <rect x="30" y="110" width="70" height="30" rx="12" fill="#d8b1a0" />
    <rect x="110" y="110" width="70" height="30" rx="12" fill="#d6a792" />
    <rect x="190" y="110" width="40" height="30" rx="12" fill="#c38b74" />
  </g>
  <g transform="translate(1020 520)">
    <rect x="0" y="0" width="220" height="220" rx="32" fill="#fdeede" filter="url(#shadow)" />
    <rect x="40" y="40" width="140" height="70" rx="20" fill="#f5c8a8" />
    <rect x="40" y="130" width="140" height="50" rx="20" fill="#e1af8a" />
  </g>
  <g transform="translate(620 600)">
    <rect x="0" y="0" width="140" height="200" rx="40" fill="#f6d4be" filter="url(#shadow)" />
    <rect x="40" y="40" width="60" height="120" rx="20" fill="#ffe8d6" />
    <rect x="50" y="20" width="40" height="20" rx="10" fill="#f1ba8a" />
    <rect x="50" y="170" width="40" height="20" rx="10" fill="#f1ba8a" />
  </g>
  <g transform="translate(900 580)">
    <rect x="0" y="0" width="200" height="120" rx="28" fill="#f1ddcf" filter="url(#shadow)" />
    <rect x="30" y="30" width="60" height="60" rx="20" fill="#f6c7a3" />
    <rect x="110" y="30" width="60" height="60" rx="20" fill="#d8ad91" />
  </g>
  <g transform="translate(1090 320)">
    <path d="M0 80c32-70 96-100 150-70 52 26 60 96-2 130-48 30-122 12-148-60z" fill="#f6e6dc" filter="url(#shadow)" />
    <path d="M36 86c24-48 74-70 112-48 40 20 36 74-8 100-34 18-92 10-104-52z" fill="#e8d0c4" />
  </g>
</svg>
