<svg xmlns="http://www.w3.org/2000/svg" viewBox="0 0 1600 900" role="img" aria-labelledby="title desc">
  <title id="title">Musica per la cerimonia con arpa e spartiti</title>
  <desc id="desc">Arpa dorata, spartiti musicali e fiori bianchi per l'accompagnamento musicale della cerimonia.</desc>
  <defs>
    <linearGradient id="bg" x1="0" y1="0" x2="1" y2="1">
      <stop offset="0%" stop-color="#f3ede4" />
      <stop offset="100%" stop-color="#e6dacc" />
    </linearGradient>
    <linearGradient id="gold" x1="0" y1="0" x2="1" y2="1">
      <stop offset="0%" stop-color="#e8c982" />
      <stop offset="100%" stop-color="#c29948" />
    </linearGradient>
    <filter id="shadow" x="-20%" y="-20%" width="140%" height="140%">
      <feDropShadow dx="0" dy="16" stdDeviation="16" flood-color="#d3c2ac" flood-opacity="0.45" />
    </filter>
  </defs>
  <rect width="1600" height="900" fill="url(#bg)" />
  <g transform="translate(320 160)">
    <rect x="0" y="0" width="960" height="620" rx="36" fill="#fffaf4" filter="url(#shadow)" />
    <rect x="120" y="120" width="720" height="380" rx="28" fill="#fff" />
    <path d="M160 200h640" stroke="#e0d2c2" stroke-width="12" stroke-linecap="round" />
    <path d="M160 280h580" stroke="#d5c7b7" stroke-width="12" stroke-linecap="round" />
    <path d="M160 360h480" stroke="#d5c7b7" stroke-width="12" stroke-linecap="round" />
  </g>
  <g transform="translate(500 200)">
    <path d="M120 40c140 120 220 260 220 420 0 120-70 220-190 220h-110c44-46 70-130 70-220 0-150-70-276-140-340z" fill="url(#gold)" filter="url(#shadow)" />
    <path d="M100 80c90 90 140 200 140 320 0 120-40 196-90 220" fill="none" stroke="#d3ae6c" stroke-width="24" stroke-linecap="round" />
    <path d="M60 220c160 0 280 40 360 120" fill="none" stroke="#fff1d0" stroke-width="18" stroke-linecap="round" />
  </g>
  <g transform="translate(930 220)">
    <rect x="0" y="0" width="280" height="360" rx="30" fill="#fff8ee" filter="url(#shadow)" />
    <path d="M60 120c70-60 140-60 200 0" fill="none" stroke="#d8c1a6" stroke-width="14" stroke-linecap="round" />
    <path d="M80 190c52-46 110-46 160 0" fill="none" stroke="#cbb49d" stroke-width="12" stroke-linecap="round" />
    <path d="M100 260c36-32 80-32 120 0" fill="none" stroke="#bda992" stroke-width="10" stroke-linecap="round" />
  </g>
  <g transform="translate(1140 220)">
    <path d="M0 80c32-68 98-96 150-64 54 34 50 108-14 140-56 28-126 8-136-76z" fill="#f5ede1" filter="url(#shadow)" />
    <path d="M32 90c24-46 74-66 110-44 40 22 36 76-10 100-34 18-90 8-100-56z" fill="#e5d3c4" />
  </g>
  <g transform="translate(760 560)">
    <rect x="0" y="0" width="320" height="200" rx="28" fill="#f4e7da" filter="url(#shadow)" />
    <path d="M40 120c60-70 140-70 200 0" fill="none" stroke="#d2bda7" stroke-width="14" stroke-linecap="round" />
    <path d="M60 150c40-46 100-46 140 0" fill="none" stroke="#c1aa96" stroke-width="12" stroke-linecap="round" />
  </g>
  <g transform="translate(380 560)">
    <path d="M0 80c42-84 122-116 188-70 60 40 60 120-6 160-58 34-150 18-182-90z" fill="#f6ecde" filter="url(#shadow)" />
    <path d="M34 90c28-58 86-80 128-54 46 26 44 92-8 120-38 22-104 12-120-66z" fill="#e2cfbe" />
  </g>
</svg>
