<svg xmlns="http://www.w3.org/2000/svg" viewBox="0 0 1600 900" role="img" aria-labelledby="title desc">
  <title id="title">Bouquet e composizioni floreali per matrimonio</title>
  <desc id="desc">Una composizione di fiori avorio e foglie verde salvia con nastro di seta e dettagli decorativi.</desc>
  <defs>
    <linearGradient id="bg" x1="0" y1="0" x2="1" y2="1">
      <stop offset="0%" stop-color="#f5f0e8" />
      <stop offset="100%" stop-color="#e8ded0" />
    </linearGradient>
    <filter id="shadow" x="-20%" y="-20%" width="140%" height="140%">
      <feDropShadow dx="0" dy="16" stdDeviation="16" flood-color="#d4c8bb" flood-opacity="0.4" />
    </filter>
  </defs>
  <rect width="1600" height="900" fill="url(#bg)" />
  <g transform="translate(240 160)">
    <path d="M200 340c120-220 340-320 520-200 168 112 184 340 20 460-152 112-392 52-464-180-20-60-44-116-76-156z" fill="#f9f3ec" filter="url(#shadow)" />
    <path d="M260 360c110-180 290-250 420-160 140 96 132 280-10 370-126 78-320 36-410-210z" fill="#e6d9cc" />
  </g>
  <g transform="translate(400 260)">
    <path d="M160 200c40-140 120-220 220-200 100 22 160 130 120 250-34 106-140 188-260 126-76-40-116-110-80-176z" fill="#fffdf8" filter="url(#shadow)" />
    <path d="M220 210c26-94 90-150 160-132 70 16 110 90 76 176-26 70-96 126-180 84-52-28-78-76-56-128z" fill="#f2e7dc" />
    <g fill="#f9e8d6">
      <circle cx="280" cy="160" r="30" />
      <circle cx="320" cy="210" r="26" />
      <circle cx="240" cy="200" r="24" />
    </g>
  </g>
  <g transform="translate(520 420)">
    <path d="M0 0c80 140 200 220 320 180" fill="none" stroke="#c8b8a8" stroke-width="20" stroke-linecap="round" />
    <path d="M40 40c60 110 160 172 260 140" fill="none" stroke="#af9b89" stroke-width="14" stroke-linecap="round" />
  </g>
  <g transform="translate(880 260)">
    <path d="M0 120c30-90 120-140 200-110 90 36 110 142 24 206-70 54-178 26-224-96z" fill="#d7e0c8" filter="url(#shadow)" />
    <path d="M40 130c26-70 96-108 156-84 68 28 74 106 10 156-52 42-132 22-166-72z" fill="#b8caa6" />
    <path d="M80 150c20-46 70-70 110-54 48 18 48 78-4 110-40 24-96 12-106-56z" fill="#8fa87c" />
  </g>
  <g transform="translate(620 540)">
    <rect x="0" y="0" width="320" height="120" rx="60" fill="#f3e4d6" filter="url(#shadow)" />
    <path d="M0 60c110 60 210 60 320 0" fill="none" stroke="#d6c2af" stroke-width="18" stroke-linecap="round" />
  </g>
  <g transform="translate(940 540)">
    <path d="M0 60c46-90 120-130 190-80 62 44 64 128-6 170-62 38-158 12-184-90z" fill="#f5ede0" filter="url(#shadow)" />
    <path d="M38 70c28-58 90-84 136-56 50 32 46 96-10 128-46 26-118 10-126-72z" fill="#ddcabc" />
  </g>
</svg>
