<svg xmlns="http://www.w3.org/2000/svg" viewBox="0 0 1600 900" role="img" aria-labelledby="title desc">
  <title id="title">Tavola apparecchiata con menu elegante e fiocco champagne</title>
  <desc id="desc">Un set da catering con piatti sovrapposti, menu tipografico, posate dorate, bicchieri e fiore delicato su tovaglia color champagne.</desc>
  <defs>
    <linearGradient id="bg" x1="0" y1="0" x2="1" y2="1">
      <stop offset="0%" stop-color="#efe3d6" />
      <stop offset="100%" stop-color="#e2d2c0" />
    </linearGradient>
    <linearGradient id="gold" x1="0" y1="0" x2="1" y2="1">
      <stop offset="0%" stop-color="#e0c58f" />
      <stop offset="100%" stop-color="#b58b45" />
    </linearGradient>
    <filter id="shadow" x="-20%" y="-20%" width="140%" height="140%">
      <feDropShadow dx="0" dy="14" stdDeviation="16" flood-color="#d5c0a8" flood-opacity="0.4" />
    </filter>
  </defs>
  <rect width="1600" height="900" fill="url(#bg)" />
  <g transform="translate(280 120)">
    <circle cx="520" cy="320" r="320" fill="#f7f1e7" filter="url(#shadow)" />
    <circle cx="520" cy="320" r="240" fill="#fffaf2" />
    <circle cx="520" cy="320" r="168" fill="#f1e4d6" />
    <rect x="470" y="140" width="100" height="360" rx="50" fill="#dbc6b5" />
  </g>
  <g transform="translate(360 160)">
    <rect x="320" y="80" width="320" height="480" rx="32" fill="#ffffff" filter="url(#shadow)" />
    <text x="360" y="200" font-family="'Playfair Display', serif" font-size="72" fill="#3f342b">Menu</text>
    <text x="360" y="260" font-family="'Inter', sans-serif" font-size="30" fill="#67594d">Starter • Main • Dessert</text>
    <text x="360" y="320" font-family="'Inter', sans-serif" font-size="26" fill="#7a6b5e">Risotto allo zafferano</text>
    <text x="360" y="360" font-family="'Inter', sans-serif" font-size="26" fill="#7a6b5e">Filetto in crosta di erbe</text>
    <text x="360" y="400" font-family="'Inter', sans-serif" font-size="26" fill="#7a6b5e">Mousse al cioccolato bianco</text>
    <g transform="translate(340 440)">
      <path d="M0 0h260" stroke="#e2d2c0" stroke-width="8" stroke-linecap="round" />
      <path d="M0 50h260" stroke="#e2d2c0" stroke-width="8" stroke-linecap="round" />
    </g>
  </g>
  <g transform="translate(520 520)">
    <rect x="0" y="0" width="260" height="120" rx="60" fill="#e8d8c6" filter="url(#shadow)" />
    <rect x="40" y="22" width="180" height="76" rx="38" fill="#f5ecdf" stroke="#d5c0a8" stroke-width="8" />
    <path d="M40 60c40 40 140 40 180 0" fill="none" stroke="#d1b59b" stroke-width="10" stroke-linecap="round" />
  </g>
  <g transform="translate(1160 180)">
    <rect x="0" y="0" width="220" height="440" rx="110" fill="#fff" filter="url(#shadow)" />
    <rect x="60" y="80" width="100" height="280" rx="50" fill="#fff9ed" />
    <rect x="80" y="340" width="60" height="70" rx="30" fill="#f0d4b0" />
  </g>
  <g transform="translate(1170 560)">
    <path d="M0 80c36-90 120-120 190-60 56 44 48 118-14 160-56 36-144 18-176-100z" fill="#f9efe3" filter="url(#shadow)" />
    <path d="M46 90c32-62 92-82 136-46 44 38 36 100-12 128-42 24-110 16-124-82z" fill="#dac9b7" />
  </g>
  <g transform="translate(420 540)">
    <rect x="0" y="0" width="320" height="220" rx="28" fill="#f6ede2" filter="url(#shadow)" />
    <path d="M40 110c70-80 170-110 240-40" fill="none" stroke="#d4b99c" stroke-width="16" stroke-linecap="round" />
    <path d="M60 150c50-60 140-80 200-30" fill="none" stroke="#bfa58b" stroke-width="10" stroke-linecap="round" />
  </g>
</svg>
