<svg xmlns="http://www.w3.org/2000/svg" viewBox="0 0 1600 900" role="img" aria-labelledby="title desc">
  <title id="title">Moodboard fotografico con fotocamera e stampe</title>
  <desc id="desc">Una scena che mostra una fotocamera, stampe fotografiche, fiori e campioni di colore per il servizio fotografico di nozze.</desc>
  <defs>
    <linearGradient id="bg" x1="0" y1="0" x2="1" y2="1">
      <stop offset="0%" stop-color="#f4efe9" />
      <stop offset="100%" stop-color="#e6dacc" />
    </linearGradient>
    <filter id="shadow" x="-20%" y="-20%" width="140%" height="140%">
      <feDropShadow dx="0" dy="18" stdDeviation="18" flood-color="#d1c2b0" flood-opacity="0.4" />
    </filter>
    <linearGradient id="lens" x1="0" y1="0" x2="1" y2="1">
      <stop offset="0%" stop-color="#6d7f90" />
      <stop offset="100%" stop-color="#4c5c6a" />
    </linearGradient>
  </defs>
  <rect width="1600" height="900" fill="url(#bg)" />
  <g transform="translate(240 180)">
    <rect x="0" y="0" width="520" height="360" rx="32" fill="#fffaf5" filter="url(#shadow)" />
    <rect x="60" y="50" width="400" height="260" rx="24" fill="#fff" />
    <path d="M90 100h340" stroke="#e0d4c6" stroke-width="12" stroke-linecap="round" />
    <path d="M90 160h280" stroke="#d1c4b4" stroke-width="12" stroke-linecap="round" />
    <path d="M90 220h320" stroke="#d1c4b4" stroke-width="12" stroke-linecap="round" />
  </g>
  <g transform="translate(820 160)">
    <rect x="0" y="0" width="380" height="300" rx="28" fill="#fff" filter="url(#shadow)" />
    <path d="M60 80h260" stroke="#d0c3b2" stroke-width="10" stroke-linecap="round" />
    <path d="M60 140h180" stroke="#c2b3a2" stroke-width="10" stroke-linecap="round" />
    <rect x="120" y="160" width="200" height="110" rx="18" fill="#f4e3d6" />
    <path d="M160 210c40-44 80-44 120 0" fill="none" stroke="#d3b69f" stroke-width="12" stroke-linecap="round" />
  </g>
  <g transform="translate(1040 380)">
    <rect x="0" y="0" width="440" height="300" rx="34" fill="#fffaf2" filter="url(#shadow)" />
    <rect x="60" y="60" width="320" height="180" rx="24" fill="#f9efe2" />
    <path d="M90 120c80-80 160-80 240 0" fill="none" stroke="#d8c3af" stroke-width="14" stroke-linecap="round" />
    <path d="M120 190c52-60 120-60 180 0" fill="none" stroke="#cbb29b" stroke-width="12" stroke-linecap="round" />
  </g>
  <g transform="translate(520 480)">
    <rect x="0" y="0" width="340" height="260" rx="32" fill="#fffaf2" filter="url(#shadow)" />
    <rect x="40" y="40" width="260" height="180" rx="22" fill="#f1e0d3" />
    <path d="M70 110c80-60 160-60 220 0" fill="none" stroke="#cfae92" stroke-width="12" stroke-linecap="round" />
    <path d="M90 160c60-40 120-40 180 0" fill="none" stroke="#bfa184" stroke-width="10" stroke-linecap="round" />
  </g>
  <g transform="translate(780 470)">
    <rect x="0" y="0" width="300" height="220" rx="32" fill="#3f4a54" filter="url(#shadow)" />
    <rect x="30" y="40" width="240" height="140" rx="22" fill="#2f3a42" />
    <circle cx="150" cy="110" r="70" fill="url(#lens)" />
    <circle cx="150" cy="110" r="44" fill="#90a2b0" opacity="0.7" />
    <rect x="110" y="24" width="80" height="24" rx="12" fill="#5b6a74" />
    <rect x="80" y="180" width="140" height="20" rx="10" fill="#5b6a74" />
  </g>
  <g transform="translate(360 540)">
    <path d="M0 70c46-90 120-130 190-80 60 44 64 130-12 172-64 36-156 18-178-92z" fill="#f4ecde" filter="url(#shadow)" />
    <path d="M40 80c30-56 94-80 140-52 48 28 46 94-10 124-44 24-112 10-130-72z" fill="#dbc7b4" />
  </g>
  <g transform="translate(1180 160)">
    <path d="M0 80c32-74 104-110 164-82 60 30 64 110-4 152-56 34-140 14-160-70z" fill="#d8e0c6" filter="url(#shadow)" />
    <path d="M34 90c26-54 80-80 120-58 46 26 44 88-8 118-40 24-102 10-112-60z" fill="#b8caa4" />
  </g>
</svg>
