<svg xmlns="http://www.w3.org/2000/svg" viewBox="0 0 1600 900" role="img" aria-labelledby="title desc">
  <title id="title">Accessori matrimonio con bouquet, profumo e taccuino</title>
  <desc id="desc">Un flat lay elegante di accessori per matrimonio con bouquet, taccuino, profumo e dettagli verdi.</desc>
  <defs>
    <linearGradient id="bg" x1="0" y1="0" x2="1" y2="1">
      <stop offset="0%" stop-color="#f6f2ec" />
      <stop offset="100%" stop-color="#e6dbce" />
    </linearGradient>
    <filter id="shadow" x="-20%" y="-20%" width="140%" height="140%">
      <feDropShadow dx="0" dy="16" stdDeviation="16" flood-color="#d4c7b8" flood-opacity="0.45" />
    </filter>
  </defs>
  <rect width="1600" height="900" fill="url(#bg)" />
  <g transform="translate(280 200)">
    <rect x="0" y="0" width="1040" height="520" rx="40" fill="#fffaf4" filter="url(#shadow)" />
    <rect x="100" y="120" width="380" height="280" rx="28" fill="#fff" />
    <path d="M140 200c80-70 160-70 240 0" fill="none" stroke="#d8c3b0" stroke-width="14" stroke-linecap="round" />
    <path d="M160 260c60-50 120-50 180 0" fill="none" stroke="#cbb29d" stroke-width="12" stroke-linecap="round" />
  </g>
  <g transform="translate(780 220)">
    <rect x="0" y="0" width="280" height="360" rx="34" fill="#f3e7dc" filter="url(#shadow)" />
    <rect x="40" y="80" width="200" height="200" rx="28" fill="#fff" />
    <path d="M80 140c60-60 120-60 180 0" fill="none" stroke="#d8c3ad" stroke-width="12" stroke-linecap="round" />
    <path d="M100 200c40-40 80-40 120 0" fill="none" stroke="#c9b29c" stroke-width="10" stroke-linecap="round" />
  </g>
  <g transform="translate(1140 220)">
    <path d="M0 80c36-72 104-102 160-70 54 32 52 106-10 140-48 28-120 10-150-70z" fill="#f5ecdf" filter="url(#shadow)" />
    <path d="M34 90c28-54 86-74 128-48 44 24 40 84-8 110-38 20-98 8-120-62z" fill="#e2cfbf" />
  </g>
  <g transform="translate(380 520)">
    <rect x="0" y="0" width="260" height="220" rx="30" fill="#f7eee4" filter="url(#shadow)" />
    <rect x="40" y="40" width="180" height="140" rx="24" fill="#fff" />
    <path d="M80 110c50-50 110-50 160 0" fill="none" stroke="#d6c1ae" stroke-width="12" stroke-linecap="round" />
  </g>
  <g transform="translate(660 520)">
    <rect x="0" y="0" width="200" height="220" rx="30" fill="#f1e0d2" filter="url(#shadow)" />
    <rect x="40" y="40" width="120" height="140" rx="24" fill="#fff8f2" />
    <rect x="60" y="20" width="80" height="40" rx="20" fill="#dec2ad" />
    <rect x="60" y="160" width="80" height="40" rx="20" fill="#dec2ad" />
  </g>
  <g transform="translate(900 520)">
    <rect x="0" y="0" width="280" height="220" rx="30" fill="#f6eadf" filter="url(#shadow)" />
    <rect x="50" y="60" width="180" height="100" rx="22" fill="#fff" />
    <path d="M80 110c50-40 120-40 170 0" fill="none" stroke="#d0baa6" stroke-width="12" stroke-linecap="round" />
  </g>
  <g transform="translate(1080 520)">
    <path d="M0 60c40-70 120-100 184-60 66 42 66 128-6 170-60 36-152 16-178-110z" fill="#efe3d7" filter="url(#shadow)" />
    <path d="M40 70c30-56 94-74 140-44 46 28 40 92-12 120-40 22-106 8-128-76z" fill="#d8c5b7" />
  </g>
</svg>
